<svg id="Layer_1" data-name="Layer 1" xmlns="http://www.w3.org/2000/svg" viewBox="0 0 1000 1000"><defs><style>.cls-1{fill:#1a1a1d;}</style></defs><path class="cls-1" d="M501.39,664.44c27.87,0,55.74-8.36,83.62-22.3,78-44.59,105.9-147.71,61.31-225.75S498.61,310.48,420.57,355.07c-39,22.3-64.1,58.53-78,100.34-11.15,41.8-5.57,86.4,16.72,125.41C387.12,636.57,442.87,664.44,501.39,664.44ZM392.7,472.13c8.36-27.87,25.08-52.95,52.95-66.89,16.72-11.15,36.23-13.94,55.74-13.94,39,0,75.25,19.51,97.55,55.75C629.6,500,610.09,569.68,557.13,600.33s-122.63,11.15-153.28-41.8C389.91,530.66,384.34,500,392.7,472.13Z"/><path class="cls-1" d="M685.34,391.3c22.3,36.24,55.74,64.11,97.55,75.26,13.93,2.78,27.87,5.57,41.8,5.57,8.36,0,13.94,0,22.3-2.79-2.79-16.72-5.58-33.44-8.36-52.95-13.94,2.79-27.87,0-41.81-2.79q-41.8-12.54-66.89-50.17c-13.93-25.08-19.51-52.95-11.15-80.82,2.79-13.94,11.15-25.08,19.51-36.23-13.93-11.15-25.08-22.3-41.8-33.45-13.94,16.73-22.3,36.23-27.87,55.74C657.47,313.27,663,355.07,685.34,391.3Z"/><path class="cls-1" d="M782.89,533.44c-41.81,11.15-75.25,36.24-97.55,75.26-22.3,36.23-27.87,80.82-16.72,122.63,5.57,22.29,16.72,39,27.87,55.74l41.8-33.45c-8.36-11.15-13.93-22.29-19.51-36.23-8.36-27.87-2.78-55.74,11.15-80.82s39-41.81,66.89-50.17c13.94-2.79,27.87-5.58,41.81-2.79,2.78-16.72,5.57-33.44,8.36-53C824.69,525.08,805.18,527.87,782.89,533.44Z"/><path class="cls-1" d="M498.61,767.56c44.59,0,83.61,27.87,100.33,66.89,16.72-5.58,33.45-11.15,50.17-19.51C624,756.41,568.28,714.6,501.39,714.6S376,756.41,353.68,814.94c16.72,8.36,33.44,13.93,50.17,19.51C417.78,795.43,454,767.56,498.61,767.56Z"/><path class="cls-1" d="M498.61,285.4c66.89,0,125.41-41.81,147.71-100.34a268.68,268.68,0,0,0-50.17-19.51c-16.72,39-55.74,66.89-100.33,66.89s-83.61-27.87-100.33-66.89c-16.73,5.58-33.45,11.15-50.17,19.51C376,243.59,431.72,285.4,498.61,285.4Z"/><path class="cls-1" d="M314.66,608.7c-22.3-36.24-55.74-64.11-97.55-75.26-22.29-5.57-41.8-5.57-64.1-2.78,2.79,16.72,5.58,33.44,8.36,53h13.94c8.36,0,19.51,0,27.87,2.79q41.81,12.54,66.89,50.17c22.29,39,16.72,86.39-8.36,119.84,13.93,11.15,25.08,22.3,41.8,33.44C339.74,736.9,348.11,664.44,314.66,608.7Z"/><path class="cls-1" d="M217.11,466.56c41.81-11.15,75.25-36.24,97.55-75.26,22.3-36.23,27.87-80.82,16.72-122.63-5.57-22.29-16.72-39-27.87-55.74q-25.08,16.73-41.8,33.45c8.36,11.15,13.93,22.29,19.51,36.23,8.36,27.87,2.78,55.74-11.15,80.82s-39,41.81-66.89,50.17c-13.94,2.79-27.87,5.58-41.81,2.79-2.78,16.72-5.57,33.44-8.36,52.95,8.36,0,13.94,2.79,22.3,2.79C189.24,472.13,203.18,472.13,217.11,466.56Z"/></svg>